<svg width="1000" height="1000" viewBox="0 0 1000 1000" fill="none" xmlns="http://www.w3.org/2000/svg">
<g clip-path="url(#clip0_10_2)">
<rect width="1000" height="1000" fill="white"/>
<g clip-path="url(#clip1_10_2)">
<rect width="1000" height="2075" transform="translate(0 -96)" fill="white"/>
<path d="M646.154 488.74C651.479 486.965 655.621 483.414 657.988 478.679C660.355 473.353 660.947 466.842 660.355 460.924C659.763 455.597 657.396 449.679 652.663 446.128C647.929 442.577 641.42 442.577 636.095 442.577C633.728 442.577 630.769 442.577 628.402 443.76V489.924C634.32 489.924 640.828 490.516 646.746 488.74H646.154Z" fill="#C2151C"/>
<path d="M647.929 524.251C641.42 521.884 634.911 523.067 627.811 522.475C627.811 541.414 627.811 560.353 627.811 578.7C631.953 579.884 636.686 579.884 640.828 579.292C645.562 579.292 650.888 576.925 654.438 573.966C658.58 570.415 660.947 565.68 662.13 560.945C663.905 552.659 663.905 544.374 660.947 536.68C658.58 530.761 653.846 526.027 647.929 524.251Z" fill="#C2151C"/>
<path d="M389.349 474.536C386.982 466.842 384.615 459.148 379.29 452.638C375.74 448.495 371.006 444.352 365.68 443.76C359.763 442.577 353.846 444.944 349.112 449.087C343.787 453.822 340.237 460.924 337.87 467.434C334.32 478.087 332.544 489.332 331.953 500.577C331.361 514.19 331.953 528.394 334.911 542.006C337.278 550.884 340.237 560.353 345.562 568.047C349.112 572.782 354.438 576.925 360.355 577.517C366.272 578.109 372.781 575.741 376.923 571.598C382.84 565.68 386.391 557.394 388.757 549.7C392.308 536.68 393.491 522.476 393.491 508.863C393.491 497.026 392.308 485.189 389.349 473.944V474.536Z" fill="#C2151C"/>
<path d="M0 -96V1979H1000V-96H0ZM460.355 709.498C450.888 708.906 440.828 707.722 431.361 705.947C407.101 702.396 382.84 696.477 359.172 688.191C332.544 678.722 307.101 666.885 282.84 651.497C250.296 630.783 221.302 604.15 199.408 572.782C180.473 546.149 166.864 515.373 160.355 482.822C158.58 473.353 156.805 463.883 156.805 454.414C156.805 444.352 157.396 433.699 159.172 423.638C160.947 414.168 163.905 404.699 166.864 395.229C188.166 331.902 228.402 275.085 281.065 234.248C328.402 196.962 385.207 172.697 444.379 163.819C460.947 161.451 477.515 160.268 494.083 159.676C494.675 206.432 495.858 253.187 496.45 299.943C496.45 302.902 496.45 305.861 496.45 308.228C496.45 308.82 496.45 309.412 496.45 310.004C452.663 311.188 408.876 320.657 369.231 339.596C333.728 356.76 301.775 382.209 279.29 414.76C266.864 433.107 257.396 453.23 252.663 474.536C248.521 492.883 247.337 511.23 249.704 529.578C252.071 552.659 259.763 574.558 271.006 594.088C286.982 621.313 309.467 644.395 335.503 662.15C366.864 683.457 403.55 697.661 440.828 704.763C446.746 705.355 452.071 706.538 457.988 707.13C463.314 707.722 469.231 708.906 474.556 708.906C469.823 708.906 465.089 708.906 460.355 708.314V709.498ZM423.669 523.659C423.077 535.496 421.302 546.741 418.343 558.578C414.201 575.149 406.509 591.721 393.491 602.966C381.065 613.619 363.314 617.762 347.337 613.027C337.87 610.068 330.178 603.558 324.26 596.456C317.751 588.17 313.018 578.7 309.467 569.231C303.55 552.659 301.183 534.904 301.183 517.149C301.183 515.965 301.183 514.19 301.183 513.006C301.183 507.679 301.183 502.945 301.775 497.618C302.367 486.373 304.734 475.128 307.692 464.475C311.243 453.23 315.976 441.393 323.077 431.924C328.994 424.23 336.686 417.128 345.562 412.985C355.621 408.842 366.864 408.25 376.923 411.209C385.799 414.168 394.083 419.495 400 427.189C407.101 435.475 412.426 445.536 415.976 456.189C423.669 478.679 424.852 502.353 423.669 525.435V523.659ZM485.207 555.027C485.207 552.068 484.024 549.108 484.024 546.149C482.249 536.68 480.473 527.21 479.29 518.333C477.515 508.271 476.331 498.21 474.556 488.149C472.781 476.312 471.598 464.475 469.823 452.638C469.823 457.965 469.823 463.883 469.823 469.21C469.231 478.087 469.822 486.373 469.231 495.251C469.231 513.006 468.047 530.761 468.047 548.517C468.047 554.435 468.047 560.353 467.456 566.272C467.456 581.66 466.272 596.456 466.272 611.844C457.396 611.844 448.521 611.844 439.645 611.844C439.645 602.966 440.237 594.088 440.828 585.211C440.828 580.476 440.828 575.741 440.828 571.598C442.012 540.823 443.195 510.047 444.379 479.863C444.379 475.72 444.379 471.577 444.379 467.434C444.379 462.108 444.379 456.781 444.97 451.454C444.97 439.617 446.154 427.781 446.154 415.944C446.154 414.76 446.154 412.985 446.154 411.801H484.615C488.757 434.883 493.491 458.556 497.633 481.638C501.183 502.353 504.734 523.659 507.101 544.965C507.101 546.741 507.101 549.108 508.284 550.884C508.284 549.108 508.876 547.925 509.467 546.149C511.834 530.761 514.201 515.373 517.16 499.394C520.71 476.904 526.036 454.414 530.178 431.924C531.361 425.413 533.136 418.311 534.32 411.801C546.746 411.801 559.763 411.801 572.189 411.801C572.189 432.515 573.965 453.23 573.965 473.944C573.965 484.006 574.556 493.475 574.556 502.945C574.556 508.863 574.556 514.782 575.148 521.292C575.148 542.006 576.923 562.721 576.923 582.843C576.923 588.17 576.923 593.497 577.515 599.415C577.515 603.558 577.515 607.701 577.515 611.844C568.047 611.844 558.58 611.844 549.112 611.844C549.112 604.742 549.112 598.231 549.112 591.129C549.112 569.231 547.929 547.925 547.337 526.027C547.337 519.516 547.337 513.006 547.337 507.088C547.337 488.74 547.337 470.985 546.746 452.638C543.787 472.761 539.645 492.883 536.095 512.414C532.544 531.353 528.402 549.7 524.852 568.639C524.852 571.007 523.669 573.966 523.077 576.925C521.302 587.578 518.935 598.231 517.16 608.293H494.675C491.716 590.537 488.166 572.782 485.207 555.027ZM842.604 573.374C842.604 585.211 840.828 596.456 837.87 608.293C825.444 652.681 804.142 694.702 775.148 730.804C749.704 763.355 718.343 790.58 682.84 811.886C643.787 835.56 599.408 851.54 554.438 858.05C537.87 860.418 521.894 861.601 505.325 861.601C504.734 811.295 503.55 761.58 502.959 711.273C509.467 710.681 515.976 711.273 522.485 710.09C529.586 710.09 536.686 708.906 543.787 707.722C586.982 701.212 628.994 686.416 664.497 661.558C681.657 649.722 697.633 635.517 710.651 619.538C723.669 603.558 734.32 585.803 741.42 566.864C750.296 542.598 753.846 516.557 750.888 491.7C748.521 469.21 740.828 447.311 730.178 427.781C719.527 408.842 705.917 392.27 689.941 378.066C658.58 350.249 620.118 330.718 579.882 320.657C573.965 318.882 567.456 317.698 561.538 316.514C549.704 314.739 538.462 312.963 526.627 312.371C536.095 312.371 546.154 313.555 555.621 314.739C557.396 314.739 559.763 314.739 561.538 315.922C593.491 320.065 624.852 327.759 655.03 339.596C696.45 355.576 734.911 379.25 766.864 410.617C797.633 440.209 821.894 477.495 834.911 518.924C839.053 531.353 841.42 543.782 843.195 556.802C843.787 562.721 844.379 568.639 843.787 575.149L842.604 573.374ZM686.391 522.475C692.308 533.72 693.491 546.741 692.899 559.17C691.716 572.19 688.166 585.211 679.882 595.272C673.965 602.966 665.089 607.701 656.213 610.068C646.154 613.027 634.911 613.619 624.26 613.027C615.976 613.027 608.284 611.844 600 610.66C599.408 610.66 598.817 610.66 598.225 610.66C598.225 544.965 598.225 479.863 598.225 414.168C602.367 412.985 606.509 411.801 610.651 411.801C615.976 410.617 621.894 410.617 627.219 410.025C636.095 410.025 645.562 410.025 654.438 411.801C660.947 412.985 667.456 416.536 672.189 420.679C680.473 427.189 685.207 437.842 686.982 448.495C688.166 453.822 688.166 459.148 688.166 464.475C688.166 468.618 686.982 472.761 686.391 476.904C684.615 483.414 681.657 489.332 677.515 494.659C674.556 498.21 671.006 501.169 667.456 503.536C675.74 507.088 682.84 514.19 686.391 522.475Z" fill="#C2151C"/>
</g>
</g>
<defs>
<clipPath id="clip0_10_2">
<rect width="1000" height="1000" fill="white"/>
</clipPath>
<clipPath id="clip1_10_2">
<rect width="1000" height="2075" fill="white" transform="translate(0 -96)"/>
</clipPath>
</defs>
</svg>
